<svg xmlns="http://www.w3.org/2000/svg" viewBox="0 0 360 190" fill="none"><defs><linearGradient id="panel" x1="0" y1="0" x2="1" y2="1"><stop stop-color="#365669"/><stop offset="1" stop-color="#142d3c"/></linearGradient><filter id="s"><feDropShadow dy="8" stdDeviation="7" flood-color="#071722" flood-opacity=".55"/></filter></defs><g filter="url(#s)"><rect x="129" y="31" width="192" height="118" rx="10" fill="url(#panel)" stroke="#89b6c5"/><path d="M129 52h192" stroke="#739cad"/><circle cx="142" cy="42" r="3" fill="#80ddc5"/><circle cx="153" cy="42" r="3" fill="#6c91a4"/><path d="m189 129 19-68m46 68-19-68" stroke="#385d6d" stroke-width="12"/><path d="m193 127 19-63m38 63-19-63" stroke="#83e5ca" stroke-width="2"/><path d="M221 126V72" stroke="#cefff1" stroke-dasharray="8 6"/><rect x="208" y="87" width="27" height="28" rx="5" fill="#cce3eb"/><path d="M212 93h19v10h-19Z" fill="#183b4c"/><path d="M189 165h76m-58-16v16m39-16v16" stroke="#8aacbc" stroke-width="5" stroke-linecap="round"/></g><g filter="url(#s)"><circle cx="91" cy="96" r="58" fill="#183c4b" stroke="#83dbbf" stroke-width="2"/><circle cx="91" cy="96" r="48" stroke="#507b86" stroke-dasharray="1 8" stroke-width="4"/><path d="M91 41a55 55 0 1 1-55 55" stroke="#a9ffe0" stroke-width="4" stroke-linecap="round"/><text x="91" y="102" fill="#ecfff7" text-anchor="middle" font-family="sans-serif" font-weight="700" font-size="36">30</text><text x="91" y="124" fill="#8fdcc6" text-anchor="middle" font-family="sans-serif" font-size="12" letter-spacing="2">MIN</text></g><circle cx="298" cy="134" r="18" fill="#1e6857" stroke="#8fe8c8"/><path d="m289 134 6 6 11-13" stroke="#d0ffe9" stroke-width="3" stroke-linecap="round" stroke-linejoin="round"/></svg>
